<?xml version="1.0" encoding="UTF-8" standalone="no"?>
<svg
   xmlns:dc="http://purl.org/dc/elements/1.1/"
   xmlns:cc="http://creativecommons.org/ns#"
   xmlns:rdf="http://www.w3.org/1999/02/22-rdf-syntax-ns#"
   xmlns:svg="http://www.w3.org/2000/svg"
   xmlns="http://www.w3.org/2000/svg"
   xmlns:xlink="http://www.w3.org/1999/xlink"
   xmlns:sodipodi="http://sodipodi.sourceforge.net/DTD/sodipodi-0.dtd"
   xmlns:inkscape="http://www.inkscape.org/namespaces/inkscape"
   width="48"
   viewBox="0 0 13.546667 13.546667"
   height="48"
   id="svg2"
   version="1.1"
   inkscape:version="0.48.5 r10040"
   sodipodi:docname="dart-editor.svg">
  <metadata
     id="metadata28">
    <rdf:RDF>
      <cc:Work
         rdf:about="">
        <dc:format>image/svg+xml</dc:format>
        <dc:type
           rdf:resource="http://purl.org/dc/dcmitype/StillImage" />
        <dc:title></dc:title>
      </cc:Work>
    </rdf:RDF>
  </metadata>
  <sodipodi:namedview
     pagecolor="#ffffff"
     bordercolor="#666666"
     borderopacity="1"
     objecttolerance="10"
     gridtolerance="10"
     guidetolerance="10"
     inkscape:pageopacity="0"
     inkscape:pageshadow="2"
     inkscape:window-width="1920"
     inkscape:window-height="1023"
     id="namedview26"
     showgrid="false"
     inkscape:zoom="16"
     inkscape:cx="21.189649"
     inkscape:cy="24.625237"
     inkscape:window-x="0"
     inkscape:window-y="28"
     inkscape:window-maximized="1"
     inkscape:current-layer="svg2"
     showguides="true"
     inkscape:guide-bbox="true">
    <sodipodi:guide
       orientation="1,0"
       position="10.25,22.0625"
       id="guide3034" />
    <sodipodi:guide
       orientation="0,1"
       position="13.0625,10.8125"
       id="guide3036" />
  </sodipodi:namedview>
  <defs
     id="defs4">
    <linearGradient
       id="linearGradient4460">
      <stop
         offset="0"
         style="stop-color:#698f29"
         id="stop7" />
      <stop
         offset="1"
         style="stop-color:#94c147"
         id="stop9" />
    </linearGradient>
    <linearGradient
       gradientTransform="matrix(1.10528 0 0 1.10528 -134.28255 -295.77083)"
       xlink:href="#linearGradient4460"
       id="linearGradient3774"
       y1="279.096"
       y2="268.33"
       gradientUnits="userSpaceOnUse"
       x2="0" />
    <clipPath
       clipPathUnits="userSpaceOnUse"
       id="clipPath3992">
      <g
         style="fill-rule:evenodd"
         id="g3994"
         transform="matrix(0.63096367,0,0,0.62500926,0.28861827,4.8430116)">
        <rect
           width="11.853"
           x="0.847"
           y="0.847"
           rx="1.5991021"
           height="11.853"
           style="fill:url(#linearGradient3998)"
           id="rect3996" />
      </g>
    </clipPath>
    <linearGradient
       inkscape:collect="always"
       xlink:href="#linearGradient4460"
       id="linearGradient3998"
       gradientUnits="userSpaceOnUse"
       gradientTransform="matrix(1.10528,0,0,1.10528,-134.28255,-295.77083)"
       y1="279.096"
       x2="0"
       y2="268.33" />
  </defs>
  <g
     id="g3961"
     transform="matrix(1.5848773,0,0,1.5999763,-0.45742454,-7.7487038)"
     clip-path="url(#clipPath3992)">
    <g
       id="g3956">
      <path
         style="fill:#54dbc9"
         d="m 7.4565394,13.207705 c -0.025038,0.01908 -0.1647794,0.01982 -1.278844,0.0062 -0.6879441,-0.0084 -1.2929907,-0.02136 -1.3445516,-0.02884 C 4.5738807,13.147415 4.2898307,13.052048 4.0172374,12.91109 3.9547354,12.87872 3.8970938,12.85157 3.8891707,12.8506 3.8814507,12.8493 3.7163352,12.92231 3.5227082,13.012084 l -0.3520383,0.163224 -0.8740654,-0.01669 c -0.4807337,-0.0092 -0.912267,-0.0225 -0.9589694,-0.02959 C 1.1630006,13.102555 1.0251125,13.039206 0.9118383,12.933437 0.8203812,12.84854 0.7900929,12.793181 0.7754351,12.686578 0.7703915,12.650267 0.6131345,11.814732 0.42593,10.82987 L 0.0855562,9.0392148 0.3065845,8.0226179 C 0.4281511,7.4634861 0.6093669,6.6278125 0.709283,6.165564 0.8441618,5.5415765 0.8977859,5.3136213 0.9174806,5.2805227 0.9525662,5.2215846 1.0321457,5.1448422 1.1101397,5.0950479 c 0.080544,-0.051733 0.2496795,-0.1067264 0.3610317,-0.117459 0.046909,-0.00457 0.4753257,-0.00419 0.9520454,7.44e-4 l 0.8667432,0.00896 0.3395185,0.169694 c 0.1867541,0.093317 0.3452865,0.1688638 0.3523503,0.1678398 0.00663,-0.00102 0.037767,-0.015076 0.068199,-0.031203 0.2752743,-0.1457901 0.648131,-0.2605349 0.9310495,-0.2865231 0.052933,-0.00488 0.6313268,-8.702e-4 1.2852365,0.00888 l 1.1889289,0.017741 1.3631214,1.3994895 c 1.082174,1.111047 1.3628879,1.4025464 1.3610839,1.4151986 -0.0011,0.00875 -0.15685,0.3058354 -0.3459799,0.6603333 -0.189117,0.3545113 -0.343647,0.6522713 -0.343378,0.6616942 2.94e-4,0.00935 0.155424,0.3273787 0.344793,0.7065437 L 10.179175,10.566376 8.8319711,11.876337 C 8.0910698,12.59688 7.4724157,13.19624 7.4568539,13.207907 z"
         id="path3088"
         inkscape:connector-curvature="0" />
      <path
         style="fill:#00d0b7"
         d="m 6.4592008,11.645138 c -1.3477656,0.62281 -2.4771387,1.143802 -2.509707,1.15776 -0.03253,0.01396 -0.215876,0.09724 -0.4073589,0.185031 -0.1914854,0.0878 -0.3556345,0.162724 -0.3648021,0.166469 -0.0093,0.0038 -0.416961,-0.001 -0.9061892,-0.0106 -0.9440701,-0.01849 -0.989496,-0.02205 -1.1488101,-0.09018 C 0.9809825,12.993149 0.855703,12.885581 0.8191901,12.793111 0.8118482,12.774423 0.7822681,12.635238 0.7535262,12.483709 0.7247874,12.332182 0.5676765,11.50417 0.4044021,10.643686 0.2411227,9.7831958 0.1079944,9.0622904 0.1085636,9.0416697 0.1091156,9.0210651 0.2836071,8.2036216 0.4962936,7.2251731 0.7089791,6.2467255 0.8880147,5.4197848 0.8941462,5.3875403 c 0.00612,-0.032243 0.01759,-0.068937 0.025495,-0.081541 0.00763,-0.012873 0.0132,-0.028771 0.011792,-0.035814 -0.00314,-0.016134 0.1457869,-0.1612891 0.162275,-0.1581561 0.00665,0.00116 0.036769,-0.010738 0.067526,-0.026512 0.080815,-0.041418 0.1922939,-0.074914 0.2922609,-0.08774 0.047872,-0.00617 0.4776698,-0.00764 0.9550831,-0.00332 l 0.8680405,0.00786 0.339939,0.1694809 c 0.186977,0.093209 0.3480284,0.1696831 0.3578888,0.1699376 0.00999,8.2e-5 0.041484,-0.012488 0.070265,-0.028415 0.1628907,-0.089841 0.4359388,-0.1928717 0.6420131,-0.2423063 0.2400206,-0.05758 0.2679729,-0.058261 1.5469726,-0.038026 l 1.225332,0.019397 1.3520371,1.3971394 c 0.743885,0.7681747 1.3525407,1.3985158 1.3523797,1.4009307 -9.9e-5,0.00219 -0.156,0.2971916 -0.3470577,0.655813 -0.191001,0.3585572 -0.348054,0.6587757 -0.348937,0.6670969 -0.0039,0.036742 -0.520837,1.3059986 -0.53831,1.3217736 -0.01071,0.0097 -1.122219,0.527155 -2.4699914,1.14997 z"
         id="path3086"
         inkscape:connector-curvature="0" />
      <path
         style="fill:#00a3e2"
         d="m 4.7907814,9.1063222 c -2.5682509,-0.03381 -4.6719771,-0.059118 -4.6749375,-0.056235 -0.00782,0.00762 3.2496199,3.3488468 3.4245169,3.5125588 0.092733,0.08738 0.1796411,0.16025 0.2375545,0.200336 0.050073,0.03478 0.091081,0.06541 0.091085,0.0681 -8.63e-5,0.0044 -0.6255652,0.296268 -0.6915305,0.32321 -0.0093,0.0038 -0.4169606,-10e-4 -0.9061941,-0.0106 -0.9440789,-0.0185 -0.9895043,-0.02206 -1.148819,-0.09019 C 0.9811064,12.993029 0.8558857,12.885403 0.819314,12.79299 0.8119652,12.774295 0.7823913,12.635116 0.7536493,12.483588 0.7249105,12.332061 0.5678104,11.504038 0.4045535,10.643537 0.2412851,9.7830366 0.1078218,9.0682482 0.1079666,9.0551188 0.1081968,9.0328524 0.2284955,8.9139586 1.894599,7.2888486 3.2027671,6.012498 3.7015375,5.5310445 3.7572213,5.4882825 4.0340207,5.2770218 4.51215,5.0854671 4.9044883,5.0285784 c 0.075003,-0.010891 0.4461611,-0.00968 1.3293773,0.0043 l 1.225332,0.019395 1.3520437,1.3971458 c 0.74388,0.7681697 1.3525367,1.3985114 1.3523727,1.4009236 -5.7e-5,0.00438 -0.6936817,1.3080949 -0.6993837,1.3136489 -0.0022,0.00218 -2.1051434,-0.023929 -4.6733983,-0.057744 z"
         id="path3084"
         inkscape:connector-curvature="0" />
    </g>
    <path
       inkscape:connector-curvature="0"
       id="path3082"
       d="M 4.7867372,9.0991801 C 2.220105,9.0653866 0.1201918,9.0332231 0.1202651,9.02771 0.1204526,9.0112701 3.6128235,5.6139211 3.7226274,5.5233313 3.8640846,5.4067184 3.9562024,5.3501359 3.9939368,5.3567866 c 0.04542,0.008 4.9789045,2.4526168 4.9868365,2.4710857 0.0524,0.121878 0.486825,1.3188228 0.480816,1.3246764 -0.0045,0.0044 -2.1082442,-0.0196 -4.6748757,-0.053393 z M 3.5109928,12.999051 C 3.3299834,13.081799 3.1735959,13.15131 3.1634643,13.153518 3.1164863,13.163734 1.4006895,13.125124 1.3314738,13.112272 1.0323588,13.056746 0.814532,12.885945 0.7925911,12.689735 0.7896162,12.663513 0.6352163,11.841107 0.4493859,10.862169 0.2635569,9.8832315 0.1144196,9.0794513 0.1179737,9.0759895 c 0.00391,-0.00381 0.6882615,0.6935107 1.6691253,1.7003575 0.914457,0.938665 1.7193037,1.758511 1.7881001,1.822307 0.1064131,0.0981 0.2100031,0.179446 0.2764573,0.216873 0.011412,0.006 0.011881,0.01258 0.00217,0.02101 -0.0075,0.0066 -0.1618072,0.07974 -0.3428256,0.162485 z"
       style="fill:#0081c6" />
  </g>
</svg>
