<?xml version="1.0" encoding="UTF-8" standalone="no"?>
<svg
   xmlns:dc="http://purl.org/dc/elements/1.1/"
   xmlns:cc="http://creativecommons.org/ns#"
   xmlns:rdf="http://www.w3.org/1999/02/22-rdf-syntax-ns#"
   xmlns:svg="http://www.w3.org/2000/svg"
   xmlns="http://www.w3.org/2000/svg"
   xmlns:sodipodi="http://sodipodi.sourceforge.net/DTD/sodipodi-0.dtd"
   xmlns:inkscape="http://www.inkscape.org/namespaces/inkscape"
   viewBox="0 0 48 48"
   id="svg3409"
   version="1.1"
   inkscape:version="0.48.5 r10040"
   width="100%"
   height="100%"
   sodipodi:docname="dart.svg">
  <metadata
     id="metadata3480">
    <rdf:RDF>
      <cc:Work
         rdf:about="">
        <dc:format>image/svg+xml</dc:format>
        <dc:type
           rdf:resource="http://purl.org/dc/dcmitype/StillImage" />
        <dc:title></dc:title>
      </cc:Work>
    </rdf:RDF>
  </metadata>
  <sodipodi:namedview
     pagecolor="#ffffff"
     bordercolor="#666666"
     borderopacity="1"
     objecttolerance="10"
     gridtolerance="10"
     guidetolerance="10"
     inkscape:pageopacity="0"
     inkscape:pageshadow="2"
     inkscape:window-width="1920"
     inkscape:window-height="1023"
     id="namedview3478"
     showgrid="false"
     inkscape:zoom="13.906433"
     inkscape:cx="7.4764312"
     inkscape:cy="20.964859"
     inkscape:window-x="0"
     inkscape:window-y="28"
     inkscape:window-maximized="1"
     inkscape:current-layer="g3428" />
  <defs
     id="defs3411">
    <linearGradient
       id="linearGradient3764"
       x1="1"
       x2="47"
       gradientUnits="userSpaceOnUse"
       gradientTransform="matrix(0,-1,1,0,-1.5e-6,47.999998)">
      <stop
         stop-color="#e4e4e4"
         stop-opacity="1"
         id="stop3414" />
      <stop
         offset="1"
         stop-color="#eee"
         stop-opacity="1"
         id="stop3416" />
    </linearGradient>
    <clipPath
       id="clipPath-165511707">
      <g
         transform="translate(0,-1004.3622)"
         id="g3419">
        <path
           d="m -24 13 c 0 1.105 -0.672 2 -1.5 2 -0.828 0 -1.5 -0.895 -1.5 -2 0 -1.105 0.672 -2 1.5 -2 0.828 0 1.5 0.895 1.5 2 z"
           transform="matrix(15.333333,0,0,11.5,414.99999,878.8622)"
           fill="#1890d0"
           id="path3421" />
      </g>
    </clipPath>
    <clipPath
       id="clipPath-172015216">
      <g
         transform="translate(0,-1004.3622)"
         id="g3424">
        <path
           d="m -24 13 c 0 1.105 -0.672 2 -1.5 2 -0.828 0 -1.5 -0.895 -1.5 -2 0 -1.105 0.672 -2 1.5 -2 0.828 0 1.5 0.895 1.5 2 z"
           transform="matrix(15.333333,0,0,11.5,414.99999,878.8622)"
           fill="#1890d0"
           id="path3426" />
      </g>
    </clipPath>
  </defs>
  <g
     id="g3428">
    <path
       d="m 36.31 5 c 5.859 4.062 9.688 10.831 9.688 18.5 c 0 12.426 -10.07 22.5 -22.5 22.5 c -7.669 0 -14.438 -3.828 -18.5 -9.688 c 1.037 1.822 2.306 3.499 3.781 4.969 c 4.085 3.712 9.514 5.969 15.469 5.969 c 12.703 0 23 -10.298 23 -23 c 0 -5.954 -2.256 -11.384 -5.969 -15.469 c -1.469 -1.475 -3.147 -2.744 -4.969 -3.781 z m 4.969 3.781 c 3.854 4.113 6.219 9.637 6.219 15.719 c 0 12.703 -10.297 23 -23 23 c -6.081 0 -11.606 -2.364 -15.719 -6.219 c 4.16 4.144 9.883 6.719 16.219 6.719 c 12.703 0 23 -10.298 23 -23 c 0 -6.335 -2.575 -12.06 -6.719 -16.219 z"
       id="path3430"
       opacity="0.05" />
    <path
       d="m 41.28 8.781 c 3.712 4.085 5.969 9.514 5.969 15.469 c 0 12.703 -10.297 23 -23 23 c -5.954 0 -11.384 -2.256 -15.469 -5.969 c 4.113 3.854 9.637 6.219 15.719 6.219 c 12.703 0 23 -10.298 23 -23 c 0 -6.081 -2.364 -11.606 -6.219 -15.719 z"
       id="path3432"
       opacity="0.1" />
    <path
       d="m 31.25 2.375 c 8.615 3.154 14.75 11.417 14.75 21.13 c 0 12.426 -10.07 22.5 -22.5 22.5 c -9.708 0 -17.971 -6.135 -21.12 -14.75 a 23 23 0 0 0 44.875 -7 a 23 23 0 0 0 -16 -21.875 z"
       opacity="0.2"
       id="path3434" />
  </g>
  <g
     id="g3436">
    <path
       d="m 24 1 c 12.703 0 23 10.297 23 23 c 0 12.703 -10.297 23 -23 23 -12.703 0 -23 -10.297 -23 -23 0 -12.703 10.297 -23 23 -23 z"
       fill="url(#linearGradient3764)"
       fill-opacity="1"
       id="path3438" />
  </g>
  <g
     id="g3440" />
  <g
     id="g3442">
    <g
       clip-path="url(#clipPath-165511707)"
       id="g3444">
      <g
         transform="translate(1,1)"
         id="g3446">
        <g
           opacity="0.1"
           id="g3448">
          <!-- color: #eeeeee -->
          <g
             id="g3450">
            <path
               d="m 32.414 29.605 l -0.988 -1.469 l -1.41 -4.738 c -1.09 -3.668 -1.508 -6.02 -0.484 -6.25 c 0 0 1.113 0.438 1.117 0.438 l 0.863 0.395 l 2.203 2.184 l 2.285 2.184 l 0 9.125 l -1.609 0.477 c -0.844 0.25 -1.641 0.852 -1.656 0.789 l -0.078 -0.313 m -0.242 -2.816"
               fill="#000"
               stroke="none"
               fill-rule="nonzero"
               fill-opacity="1"
               id="path3452" />
            <path
               d="m 20.227 33.797 l -2.176 -2.199 l -0.93 -2.059 c 1.566 -1.434 4.703 -0.609 5.52 -0.199 l 5.891 3.094 l 2.426 0.863 c -4.746 -1.684 1.539 -0.691 1.645 -0.773 l 0.188 -0.145 l -0.055 0.359 l -1.215 3.258 l -4.559 0.004 l -4.559 0 m -2.176 -2.203"
               fill="#000"
               stroke="none"
               fill-rule="nonzero"
               fill-opacity="1"
               id="path3454" />
            <path
               d="m 24.836 24.852 l -7.715 -7.707 l 1.637 6.727 l -1.637 5.668 l -1.566 -0.59 l -1.609 -1.582 l -1.609 -1.578 l -0.336 -1.117 l 2.539 -3.809 l 2.582 -3.715 l 6.07 -0.676 l 6.164 0.512 l 0.176 0.164 c 0.063 0.059 1.082 2.891 2.27 6.238 l 2.16 6.09 l -1.227 3.262 c -1.289 0.445 -4.09 -3.508 -7.898 -7.887 m 0 0"
               fill="#000"
               stroke="none"
               fill-rule="nonzero"
               fill-opacity="1"
               id="path3456" />
            <path
               d="m 24.863 12 c -0.199 0 -6.01 3.793 -7.32 4.746 c -0.023 0 -0.426 0.398 -0.426 0.398 l 12.215 0 c 0.109 0 0.199 0 0.199 0 l -0.277 -0.898 l -0.238 -0.738 l -1.438 -1.461 l -1.438 -1.473 l -0.551 -0.289 c -0.305 -0.156 -0.629 -0.289 -0.727 -0.289 m -7.746 5.148 l 0 12.395 c 0.105 0.031 3.03 1.117 6.27 2.262 c 3.242 1.145 5.949 2.078 6.02 2.086 c 0.168 0.02 3.328 -1.148 3.328 -1.148 c -5.371 -5.477 -9.777 -9.762 -15.617 -15.594 m 0 0"
               fill="#000"
               stroke="none"
               fill-rule="nonzero"
               fill-opacity="1"
               id="path3458" />
          </g>
        </g>
      </g>
    </g>
  </g>
  <g
     id="g3460">
    <g
       clip-path="url(#clipPath-172015216)"
       id="g3462">
      <!-- color: #eeeeee -->
      <g
         id="g3464">
        <path
           d="m 32.414 29.605 l -0.988 -1.469 l -1.41 -4.738 c -1.09 -3.668 -1.508 -6.02 -0.484 -6.25 c 0 0 1.113 0.438 1.117 0.438 l 0.863 0.395 l 2.203 2.184 l 2.285 2.184 l 0 9.125 l -1.609 0.477 c -0.844 0.25 -1.641 0.852 -1.656 0.789 l -0.078 -0.313 m -0.242 -2.816"
           fill="#00a3de"
           stroke="none"
           fill-rule="nonzero"
           fill-opacity="1"
           id="path3466" />
        <path
           d="m 20.227 33.797 l -2.176 -2.199 l -0.93 -2.059 c 1.566 -1.434 4.703 -0.609 5.52 -0.199 l 5.891 3.094 l 2.426 0.863 c -4.746 -1.684 1.539 -0.691 1.645 -0.773 l 0.188 -0.145 l -0.055 0.359 l -1.215 3.258 l -4.559 0.004 l -4.559 0 m -2.176 -2.203"
           fill="#45c0b9"
           stroke="none"
           fill-rule="nonzero"
           fill-opacity="1"
           id="path3468" />
        <path
           d="m 24.836 24.852 l -7.715 -7.707 l 1.637 6.727 l -1.637 5.668 l -1.566 -0.59 l -1.609 -1.582 l -1.609 -1.578 l -0.336 -1.117 l 2.539 -3.809 l 2.582 -3.715 l 6.07 -0.676 l 6.164 0.512 l 0.176 0.164 c 0.063 0.059 1.082 2.891 2.27 6.238 l 2.16 6.09 l -1.227 3.262 c -1.289 0.445 -4.09 -3.508 -7.898 -7.887 m 0 0"
           fill="#0071ba"
           stroke="none"
           fill-rule="nonzero"
           fill-opacity="1"
           id="path3470" />
        <path
           d="m 24.863 12 c -0.199 0 -6.01 3.793 -7.32 4.746 c -0.023 0 -0.426 0.398 -0.426 0.398 l 12.215 0 c 0.109 0 0.199 0 0.199 0 l -0.277 -0.898 l -0.238 -0.738 l -1.438 -1.461 l -1.438 -1.473 l -0.551 -0.289 c -0.305 -0.156 -0.629 -0.289 -0.727 -0.289 m -7.746 5.148 l 0 12.395 c 0.105 0.031 3.03 1.117 6.27 2.262 c 3.242 1.145 5.949 2.078 6.02 2.086 c 0.168 0.02 3.328 -1.148 3.328 -1.148 c -5.371 -5.477 -9.777 -9.762 -15.617 -15.594 m 0 0"
           fill="#01b1a9"
           stroke="none"
           fill-rule="nonzero"
           fill-opacity="1"
           id="path3472" />
      </g>
    </g>
  </g>
</svg>
